<mxGraphModel dx="0" dy="0" grid="1" gridSize="10" guides="1" tooltips="1" connect="1" arrows="1" fold="1" page="0" pageScale="1" background="none" math="0" shadow="0">
  <root>
    <mxCell id="0" />
    <mxCell id="1" parent="0" />
    <mxCell id="node4" parent="1" vertex="1" value="&lt;p style=&quot;margin:0px;margin-top:4px;text-align:center;&quot;&gt;&lt;b&gt;Coin&lt;/b&gt;&lt;/p&gt;&lt;hr size=&quot;1&quot;/&gt;&lt;p style=&quot;margin:0 0 0 4px;line-height:1.6;&quot;&gt;- x: int&lt;br/&gt;- y: int&lt;/p&gt;&lt;hr size=&quot;1&quot;/&gt;&lt;p style=&quot;margin:0 0 0 4px;line-height:1.6;&quot;&gt;+ getY(): int&lt;br/&gt;+ draw(Screen): void&lt;br/&gt;+ getX(): int&lt;/p&gt;" style="verticalAlign=top;align=left;overflow=fill;fontSize=14;fontFamily=Helvetica;html=1;rounded=0;shadow=0;comic=0;labelBackgroundColor=none;strokeWidth=1;">
      <mxGeometry x="525" y="1657" width="163" height="161" as="geometry" />
    </mxCell>
    <mxCell id="node0" parent="1" vertex="1" value="&lt;p style=&quot;margin:0px;margin-top:4px;text-align:center;&quot;&gt;&lt;b&gt;DoorSprite&lt;/b&gt;&lt;/p&gt;&lt;hr size=&quot;1&quot;/&gt;&lt;p style=&quot;margin:0 0 0 4px;line-height:1.6;&quot;&gt;- sprite: TextCharacter[][]&lt;/p&gt;&lt;hr size=&quot;1&quot;/&gt;&lt;p style=&quot;margin:0 0 0 4px;line-height:1.6;&quot;&gt;+ getSprite(): TextCharacter[][]&lt;/p&gt;" style="verticalAlign=top;align=left;overflow=fill;fontSize=14;fontFamily=Helvetica;html=1;rounded=0;shadow=0;comic=0;labelBackgroundColor=none;strokeWidth=1;">
      <mxGeometry x="542" y="1494" width="231" height="96" as="geometry" />
    </mxCell>
    <mxCell id="node17" parent="1" vertex="1" value="&lt;p style=&quot;margin:0px;margin-top:4px;text-align:center;&quot;&gt;&lt;b&gt;FinalLevel&lt;/b&gt;&lt;/p&gt;&lt;hr size=&quot;1&quot;/&gt;&lt;p style=&quot;margin:0 0 0 4px;line-height:1.6;&quot;&gt;- score: int&lt;br/&gt;- previousScore: int&lt;br/&gt;- player: Personagem&lt;br/&gt;- platforms: List&amp;lt;Platform&amp;gt;&lt;br/&gt;- doorX: int&lt;br/&gt;- doorSprite: DoorSprite&lt;br/&gt;- doorY: int&lt;br/&gt;- coins: List&amp;lt;Coin&amp;gt;&lt;br/&gt;- gravidade: Gravidade&lt;/p&gt;&lt;hr size=&quot;1&quot;/&gt;&lt;p style=&quot;margin:0 0 0 4px;line-height:1.6;&quot;&gt;+ startGame(Screen, TerminalSize): void&lt;br/&gt;- showFallMessage(Screen, TerminalSize): void&lt;br/&gt;- drawDoor(Screen, int): void&lt;br/&gt;- collectCoins(): void&lt;br/&gt;- trueEndgame(Screen, TerminalSize): void&lt;br/&gt;- drawPlatforms(Screen): void&lt;br/&gt;- drawFloor(Screen, int): void&lt;br/&gt;- drawSpikes(Screen): void&lt;br/&gt;- badEndgame(Screen, TerminalSize): void&lt;/p&gt;" style="verticalAlign=top;align=left;overflow=fill;fontSize=14;fontFamily=Helvetica;html=1;rounded=0;shadow=0;comic=0;labelBackgroundColor=none;strokeWidth=1;">
      <mxGeometry x="150" y="1072" width="331" height="473" as="geometry" />
    </mxCell>
    <mxCell id="node3" parent="1" vertex="1" value="&lt;p style=&quot;margin:0px;margin-top:4px;text-align:center;&quot;&gt;&lt;b&gt;Gravidade&lt;/b&gt;&lt;/p&gt;&lt;hr size=&quot;1&quot;/&gt;&lt;p style=&quot;margin:0 0 0 4px;line-height:1.6;&quot;&gt;- groundLevel: int&lt;br/&gt;- verticalVelocity: double&lt;br/&gt;- gravity: double&lt;br/&gt;- jumpStrength: double&lt;/p&gt;&lt;hr size=&quot;1&quot;/&gt;&lt;p style=&quot;margin:0 0 0 4px;line-height:1.6;&quot;&gt;+ resetVerticalVelocity(): void&lt;br/&gt;+ jump(): void&lt;br/&gt;+ getGroundLevel(): int&lt;br/&gt;+ updatePosition(Personagem): void&lt;/p&gt;" style="verticalAlign=top;align=left;overflow=fill;fontSize=14;fontFamily=Helvetica;html=1;rounded=0;shadow=0;comic=0;labelBackgroundColor=none;strokeWidth=1;">
      <mxGeometry x="203" y="1605" width="260" height="233" as="geometry" />
    </mxCell>
    <mxCell id="node2" parent="1" vertex="1" value="&lt;p style=&quot;margin:0px;margin-top:4px;text-align:center;&quot;&gt;&lt;b&gt;HumanSprite&lt;/b&gt;&lt;/p&gt;&lt;hr size=&quot;1&quot;/&gt;&lt;p style=&quot;margin:0 0 0 4px;line-height:1.6;&quot;&gt;- sprite: TextCharacter[][]&lt;/p&gt;&lt;hr size=&quot;1&quot;/&gt;&lt;p style=&quot;margin:0 0 0 4px;line-height:1.6;&quot;&gt;+ getSprite(): TextCharacter[][]&lt;/p&gt;" style="verticalAlign=top;align=left;overflow=fill;fontSize=14;fontFamily=Helvetica;html=1;rounded=0;shadow=0;comic=0;labelBackgroundColor=none;strokeWidth=1;">
      <mxGeometry x="362" y="2304" width="231" height="96" as="geometry" />
    </mxCell>
    <mxCell id="node14" parent="1" vertex="1" value="&lt;p style=&quot;margin:0px;margin-top:4px;text-align:center;&quot;&gt;&lt;b&gt;Level1&lt;/b&gt;&lt;/p&gt;&lt;hr size=&quot;1&quot;/&gt;&lt;p style=&quot;margin:0 0 0 4px;line-height:1.6;&quot;&gt;- doorY: int&lt;br/&gt;- player: Personagem&lt;br/&gt;- doorX: int&lt;br/&gt;- doorSprite: DoorSprite&lt;br/&gt;- gravity: Gravidade&lt;br/&gt;- platforms: List&amp;lt;Platform&amp;gt;&lt;/p&gt;&lt;hr size=&quot;1&quot;/&gt;&lt;p style=&quot;margin:0 0 0 4px;line-height:1.6;&quot;&gt;- drawInstructions(Screen, TerminalSize): void&lt;br/&gt;- drawDoor(Screen, int): void&lt;br/&gt;- startLevel2(Screen, TerminalSize): void&lt;br/&gt;+ startGame(Screen, TerminalSize): void&lt;br/&gt;- drawFloor(Screen, int): void&lt;/p&gt;" style="verticalAlign=top;align=left;overflow=fill;fontSize=14;fontFamily=Helvetica;html=1;rounded=0;shadow=0;comic=0;labelBackgroundColor=none;strokeWidth=1;">
      <mxGeometry x="41" y="197" width="324" height="305" as="geometry" />
    </mxCell>
    <mxCell id="node11" parent="1" vertex="1" value="&lt;p style=&quot;margin:0px;margin-top:4px;text-align:center;&quot;&gt;&lt;b&gt;Level2&lt;/b&gt;&lt;/p&gt;&lt;hr size=&quot;1&quot;/&gt;&lt;p style=&quot;margin:0 0 0 4px;line-height:1.6;&quot;&gt;- doorY: int&lt;br/&gt;- doorSprite: DoorSprite&lt;br/&gt;- player: Personagem&lt;br/&gt;- doorX: int&lt;br/&gt;- gravidade: Gravidade&lt;br/&gt;- platforms: List&amp;lt;Platform&amp;gt;&lt;/p&gt;&lt;hr size=&quot;1&quot;/&gt;&lt;p style=&quot;margin:0 0 0 4px;line-height:1.6;&quot;&gt;- drawInstructions(Screen, TerminalSize): void&lt;br/&gt;- drawFloor(Screen, int): void&lt;br/&gt;- showFallMessage(Screen, TerminalSize): void&lt;br/&gt;- drawDoor(Screen, int): void&lt;br/&gt;- drawPlatforms(Screen): void&lt;br/&gt;+ startGame(Screen, TerminalSize): void&lt;br/&gt;- startLevel3(Screen, TerminalSize): void&lt;/p&gt;" style="verticalAlign=top;align=left;overflow=fill;fontSize=14;fontFamily=Helvetica;html=1;rounded=0;shadow=0;comic=0;labelBackgroundColor=none;strokeWidth=1;">
      <mxGeometry x="833" y="384" width="331" height="353" as="geometry" />
    </mxCell>
    <mxCell id="node10" parent="1" vertex="1" value="&lt;p style=&quot;margin:0px;margin-top:4px;text-align:center;&quot;&gt;&lt;b&gt;Level3&lt;/b&gt;&lt;/p&gt;&lt;hr size=&quot;1&quot;/&gt;&lt;p style=&quot;margin:0 0 0 4px;line-height:1.6;&quot;&gt;- doorSprite: DoorSprite&lt;br/&gt;- platforms: List&amp;lt;Platform&amp;gt;&lt;br/&gt;- doorY: int&lt;br/&gt;- gravidade: Gravidade&lt;br/&gt;- player: Personagem&lt;br/&gt;- doorX: int&lt;/p&gt;&lt;hr size=&quot;1&quot;/&gt;&lt;p style=&quot;margin:0 0 0 4px;line-height:1.6;&quot;&gt;- drawSpikes(Screen): void&lt;br/&gt;- drawDoor(Screen, int): void&lt;br/&gt;- startLevel4(Screen, TerminalSize): void&lt;br/&gt;- drawInstructions(Screen, TerminalSize): void&lt;br/&gt;+ startGame(Screen, TerminalSize): void&lt;br/&gt;- drawFloor(Screen, int): void&lt;br/&gt;- showFallMessage(Screen, TerminalSize): void&lt;br/&gt;- drawPlatforms(Screen): void&lt;/p&gt;" style="verticalAlign=top;align=left;overflow=fill;fontSize=14;fontFamily=Helvetica;html=1;rounded=0;shadow=0;comic=0;labelBackgroundColor=none;strokeWidth=1;">
      <mxGeometry x="846" y="1309" width="331" height="377" as="geometry" />
    </mxCell>
    <mxCell id="node12" parent="1" vertex="1" value="&lt;p style=&quot;margin:0px;margin-top:4px;text-align:center;&quot;&gt;&lt;b&gt;Level4&lt;/b&gt;&lt;/p&gt;&lt;hr size=&quot;1&quot;/&gt;&lt;p style=&quot;margin:0 0 0 4px;line-height:1.6;&quot;&gt;- score: int&lt;br/&gt;- doorY: int&lt;br/&gt;- gravidade: Gravidade&lt;br/&gt;- coins: List&amp;lt;Coin&amp;gt;&lt;br/&gt;- platforms: List&amp;lt;Platform&amp;gt;&lt;br/&gt;- doorSprite: DoorSprite&lt;br/&gt;- player: Personagem&lt;br/&gt;- doorX: int&lt;/p&gt;&lt;hr size=&quot;1&quot;/&gt;&lt;p style=&quot;margin:0 0 0 4px;line-height:1.6;&quot;&gt;+ startGame(Screen, TerminalSize): void&lt;br/&gt;- drawPlatforms(Screen): void&lt;br/&gt;- showFallMessage(Screen, TerminalSize): void&lt;br/&gt;- drawSpikes(Screen): void&lt;br/&gt;- drawDoor(Screen, int): void&lt;br/&gt;- drawFloor(Screen, int): void&lt;br/&gt;- drawInstructions(Screen, TerminalSize): void&lt;br/&gt;- startLevel5(Screen, TerminalSize): void&lt;br/&gt;- collectCoins(): void&lt;/p&gt;" style="verticalAlign=top;align=left;overflow=fill;fontSize=14;fontFamily=Helvetica;html=1;rounded=0;shadow=0;comic=0;labelBackgroundColor=none;strokeWidth=1;">
      <mxGeometry x="437" y="515" width="331" height="449" as="geometry" />
    </mxCell>
    <mxCell id="node13" parent="1" vertex="1" value="&lt;p style=&quot;margin:0px;margin-top:4px;text-align:center;&quot;&gt;&lt;b&gt;Level5&lt;/b&gt;&lt;/p&gt;&lt;hr size=&quot;1&quot;/&gt;&lt;p style=&quot;margin:0 0 0 4px;line-height:1.6;&quot;&gt;- score: int&lt;br/&gt;- doorX: int&lt;br/&gt;- doorSprite: DoorSprite&lt;br/&gt;- platforms: List&amp;lt;Platform&amp;gt;&lt;br/&gt;- doorY: int&lt;br/&gt;- gravidade: Gravidade&lt;br/&gt;- previousScore: int&lt;br/&gt;- coins: List&amp;lt;Coin&amp;gt;&lt;br/&gt;- player: Personagem&lt;/p&gt;&lt;hr size=&quot;1&quot;/&gt;&lt;p style=&quot;margin:0 0 0 4px;line-height:1.6;&quot;&gt;- drawPlatforms(Screen): void&lt;br/&gt;- drawDoor(Screen, int): void&lt;br/&gt;- startLevel6(Screen, TerminalSize): void&lt;br/&gt;- drawFloor(Screen, int): void&lt;br/&gt;+ startGame(Screen, TerminalSize): void&lt;br/&gt;- showFallMessage(Screen, TerminalSize): void&lt;br/&gt;- collectCoins(): void&lt;br/&gt;- drawSpikes(Screen): void&lt;/p&gt;" style="verticalAlign=top;align=left;overflow=fill;fontSize=14;fontFamily=Helvetica;html=1;rounded=0;shadow=0;comic=0;labelBackgroundColor=none;strokeWidth=1;">
      <mxGeometry x="431" y="-14" width="331" height="449" as="geometry" />
    </mxCell>
    <mxCell id="node8" parent="1" vertex="1" value="&lt;p style=&quot;margin:0px;margin-top:4px;text-align:center;&quot;&gt;&lt;b&gt;Level6&lt;/b&gt;&lt;/p&gt;&lt;hr size=&quot;1&quot;/&gt;&lt;p style=&quot;margin:0 0 0 4px;line-height:1.6;&quot;&gt;- previousScore: int&lt;br/&gt;- doorX: int&lt;br/&gt;- doorY: int&lt;br/&gt;- doorSprite: DoorSprite&lt;br/&gt;- gravidade: Gravidade&lt;br/&gt;- player: Personagem&lt;br/&gt;- score: int&lt;br/&gt;- platforms: List&amp;lt;Platform&amp;gt;&lt;br/&gt;- coins: List&amp;lt;Coin&amp;gt;&lt;/p&gt;&lt;hr size=&quot;1&quot;/&gt;&lt;p style=&quot;margin:0 0 0 4px;line-height:1.6;&quot;&gt;- drawPlatforms(Screen): void&lt;br/&gt;- drawSpikes(Screen): void&lt;br/&gt;- startLevel7(Screen, TerminalSize): void&lt;br/&gt;+ startGame(Screen, TerminalSize): void&lt;br/&gt;- showFallMessage(Screen, TerminalSize): void&lt;br/&gt;- collectCoins(): void&lt;br/&gt;- drawDoor(Screen, int): void&lt;br/&gt;- drawFloor(Screen, int): void&lt;/p&gt;" style="verticalAlign=top;align=left;overflow=fill;fontSize=14;fontFamily=Helvetica;html=1;rounded=0;shadow=0;comic=0;labelBackgroundColor=none;strokeWidth=1;">
      <mxGeometry x="-74" y="1904" width="331" height="449" as="geometry" />
    </mxCell>
    <mxCell id="node7" parent="1" vertex="1" value="&lt;p style=&quot;margin:0px;margin-top:4px;text-align:center;&quot;&gt;&lt;b&gt;Level7&lt;/b&gt;&lt;/p&gt;&lt;hr size=&quot;1&quot;/&gt;&lt;p style=&quot;margin:0 0 0 4px;line-height:1.6;&quot;&gt;- previousScore: int&lt;br/&gt;- platforms: List&amp;lt;Platform&amp;gt;&lt;br/&gt;- gravidade: Gravidade&lt;br/&gt;- doorSprite: DoorSprite&lt;br/&gt;- score: int&lt;br/&gt;- doorX: int&lt;br/&gt;- coins: List&amp;lt;Coin&amp;gt;&lt;br/&gt;- player: Personagem&lt;br/&gt;- doorY: int&lt;/p&gt;&lt;hr size=&quot;1&quot;/&gt;&lt;p style=&quot;margin:0 0 0 4px;line-height:1.6;&quot;&gt;- drawPlatforms(Screen): void&lt;br/&gt;- collectCoins(): void&lt;br/&gt;- showFallMessage(Screen, TerminalSize): void&lt;br/&gt;- drawFloor(Screen, int): void&lt;br/&gt;- startLevel8(Screen, TerminalSize): void&lt;br/&gt;- drawDoor(Screen, int): void&lt;br/&gt;- drawSpikes(Screen): void&lt;br/&gt;+ startGame(Screen, TerminalSize): void&lt;/p&gt;" style="verticalAlign=top;align=left;overflow=fill;fontSize=14;fontFamily=Helvetica;html=1;rounded=0;shadow=0;comic=0;labelBackgroundColor=none;strokeWidth=1;">
      <mxGeometry x="829" y="798" width="331" height="449" as="geometry" />
    </mxCell>
    <mxCell id="node6" parent="1" vertex="1" value="&lt;p style=&quot;margin:0px;margin-top:4px;text-align:center;&quot;&gt;&lt;b&gt;Level8&lt;/b&gt;&lt;/p&gt;&lt;hr size=&quot;1&quot;/&gt;&lt;p style=&quot;margin:0 0 0 4px;line-height:1.6;&quot;&gt;- coins: List&amp;lt;Coin&amp;gt;&lt;br/&gt;- doorX: int&lt;br/&gt;- player: Personagem&lt;br/&gt;- score: int&lt;br/&gt;- platforms: List&amp;lt;Platform&amp;gt;&lt;br/&gt;- doorY: int&lt;br/&gt;- previousScore: int&lt;br/&gt;- gravidade: Gravidade&lt;br/&gt;- doorSprite: DoorSprite&lt;/p&gt;&lt;hr size=&quot;1&quot;/&gt;&lt;p style=&quot;margin:0 0 0 4px;line-height:1.6;&quot;&gt;- showFallMessage(Screen, TerminalSize): void&lt;br/&gt;+ startGame(Screen, TerminalSize): void&lt;br/&gt;- drawDoor(Screen, int): void&lt;br/&gt;- drawFloor(Screen, int): void&lt;br/&gt;- startLevel9(Screen, TerminalSize): void&lt;br/&gt;- collectCoins(): void&lt;br/&gt;- drawPlatforms(Screen): void&lt;br/&gt;- drawSpikes(Screen): void&lt;/p&gt;" style="verticalAlign=top;align=left;overflow=fill;fontSize=14;fontFamily=Helvetica;html=1;rounded=0;shadow=0;comic=0;labelBackgroundColor=none;strokeWidth=1;">
      <mxGeometry x="703" y="2170" width="331" height="449" as="geometry" />
    </mxCell>
    <mxCell id="node16" parent="1" vertex="1" value="&lt;p style=&quot;margin:0px;margin-top:4px;text-align:center;&quot;&gt;&lt;b&gt;Level9&lt;/b&gt;&lt;/p&gt;&lt;hr size=&quot;1&quot;/&gt;&lt;p style=&quot;margin:0 0 0 4px;line-height:1.6;&quot;&gt;- previousScore: int&lt;br/&gt;- platforms: List&amp;lt;Platform&amp;gt;&lt;br/&gt;- coins: List&amp;lt;Coin&amp;gt;&lt;br/&gt;- doorY: int&lt;br/&gt;- doorX: int&lt;br/&gt;- gravidade: Gravidade&lt;br/&gt;- player: Personagem&lt;br/&gt;- score: int&lt;br/&gt;- doorSprite: DoorSprite&lt;/p&gt;&lt;hr size=&quot;1&quot;/&gt;&lt;p style=&quot;margin:0 0 0 4px;line-height:1.6;&quot;&gt;+ startGame(Screen, TerminalSize): void&lt;br/&gt;- showFallMessage(Screen, TerminalSize): void&lt;br/&gt;- drawFloor(Screen, int): void&lt;br/&gt;- drawPlatforms(Screen): void&lt;br/&gt;- startFinalLevel(Screen, TerminalSize): void&lt;br/&gt;- drawSpikes(Screen): void&lt;br/&gt;- drawDoor(Screen, int): void&lt;br/&gt;- collectCoins(): void&lt;/p&gt;" style="verticalAlign=top;align=left;overflow=fill;fontSize=14;fontFamily=Helvetica;html=1;rounded=0;shadow=0;comic=0;labelBackgroundColor=none;strokeWidth=1;">
      <mxGeometry x="43" y="562" width="331" height="449" as="geometry" />
    </mxCell>
    <mxCell id="node15" parent="1" vertex="1" value="&lt;p style=&quot;margin:0px;margin-top:4px;text-align:center;&quot;&gt;&lt;b&gt;Menu&lt;/b&gt;&lt;/p&gt;&lt;hr size=&quot;1&quot;/&gt;&lt;p style=&quot;margin:0 0 0 4px;line-height:1.6;&quot;&gt;- Menu_options: String[]&lt;br/&gt;- selectedLevel: int&lt;br/&gt;- selectedOption: int&lt;/p&gt;&lt;hr size=&quot;1&quot;/&gt;&lt;p style=&quot;margin:0 0 0 4px;line-height:1.6;&quot;&gt;+ main(String[]): void&lt;br/&gt;- chooseLevel(): void&lt;br/&gt;- drawMenu(Screen): void&lt;br/&gt;- moveUp(): void&lt;br/&gt;- startGame(): void&lt;br/&gt;+ start(): void&lt;br/&gt;- moveDown(): void&lt;br/&gt;- handleSelection(): boolean&lt;/p&gt;" style="verticalAlign=top;align=left;overflow=fill;fontSize=14;fontFamily=Helvetica;html=1;rounded=0;shadow=0;comic=0;labelBackgroundColor=none;strokeWidth=1;">
      <mxGeometry x="552" y="1089" width="212" height="305" as="geometry" />
    </mxCell>
    <mxCell id="node1" parent="1" vertex="1" value="&lt;p style=&quot;margin:0px;margin-top:4px;text-align:center;&quot;&gt;&lt;b&gt;Personagem&lt;/b&gt;&lt;/p&gt;&lt;hr size=&quot;1&quot;/&gt;&lt;p style=&quot;margin:0 0 0 4px;line-height:1.6;&quot;&gt;- velocityX: int&lt;br/&gt;- x: int&lt;br/&gt;- y: int&lt;br/&gt;- sprite: TextCharacter[][]&lt;/p&gt;&lt;hr size=&quot;1&quot;/&gt;&lt;p style=&quot;margin:0 0 0 4px;line-height:1.6;&quot;&gt;+ moveRight(): void&lt;br/&gt;+ getSpriteHeight(): int&lt;br/&gt;+ setY(int): void&lt;br/&gt;+ getY(): int&lt;br/&gt;+ draw(Screen): void&lt;br/&gt;+ getX(): int&lt;br/&gt;+ moveLeft(): void&lt;br/&gt;+ stopMovement(): void&lt;br/&gt;+ updatePosition(int, int): void&lt;/p&gt;" style="verticalAlign=top;align=left;overflow=fill;fontSize=14;fontFamily=Helvetica;html=1;rounded=0;shadow=0;comic=0;labelBackgroundColor=none;strokeWidth=1;">
      <mxGeometry x="748" y="1747" width="224" height="353" as="geometry" />
    </mxCell>
    <mxCell id="node5" parent="1" vertex="1" value="&lt;p style=&quot;margin:0px;margin-top:4px;text-align:center;&quot;&gt;&lt;b&gt;Platform&lt;/b&gt;&lt;/p&gt;&lt;hr size=&quot;1&quot;/&gt;&lt;p style=&quot;margin:0 0 0 4px;line-height:1.6;&quot;&gt;- endX: int&lt;br/&gt;- y: int&lt;br/&gt;- startX: int&lt;/p&gt;&lt;hr size=&quot;1&quot;/&gt;&lt;p style=&quot;margin:0 0 0 4px;line-height:1.6;&quot;&gt;+ isPlayerOnPlatform(Personagem): boolean&lt;br/&gt;+ getEndX(): int&lt;br/&gt;+ getY(): int&lt;br/&gt;+ getStartX(): int&lt;/p&gt;" style="verticalAlign=top;align=left;overflow=fill;fontSize=14;fontFamily=Helvetica;html=1;rounded=0;shadow=0;comic=0;labelBackgroundColor=none;strokeWidth=1;">
      <mxGeometry x="339" y="1901" width="308" height="209" as="geometry" />
    </mxCell>
    <mxCell id="node9" parent="1" vertex="1" value="&lt;p style=&quot;margin:0px;margin-top:4px;text-align:center;&quot;&gt;&lt;b&gt;SoundPlayer&lt;/b&gt;&lt;/p&gt;&lt;hr size=&quot;1&quot;/&gt;&lt;p style=&quot;margin:0 0 0 4px;line-height:1.6;&quot;&gt;+ playSound(String): void&lt;/p&gt;" style="verticalAlign=top;align=left;overflow=fill;fontSize=14;fontFamily=Helvetica;html=1;rounded=0;shadow=0;comic=0;labelBackgroundColor=none;strokeWidth=1;">
      <mxGeometry x="428" y="2178" width="192" height="68" as="geometry" />
    </mxCell>
  </root>
</mxGraphModel>